<svg height="512pt" viewBox="0 0 512 512" width="512pt" xmlns="http://www.w3.org/2000/svg"><path d="m304.46875 166.949219c6.125-2.390625 10.15625-8.257813 10.199219-14.828125.042969-6.546875-3.949219-12.457032-10.027344-14.933594-15.253906-6.140625-31.59375-9.257812-48.640625-9.257812-74.175781 0-128 53.824218-128 128 0 74.175781 53.824219 128 128 128 17.046875 0 33.386719-3.113282 48.640625-9.257813 6.078125-2.453125 10.070313-8.382813 10.027344-14.933594-.042969-6.570312-4.054688-12.4375-10.199219-14.828125-33.75-13.160156-69.800781-43.476562-69.800781-88.980468 0-45.503907 36.050781-75.816407 69.800781-88.980469zm-101.800781 88.980469c0 37.417968 18.21875 71.660156 49.449219 95.9375-53.609376-1.835938-92.117188-41.621094-92.117188-95.9375 0-54.3125 38.507812-94.101563 92.117188-95.933594-31.230469 24.277344-49.449219 58.515625-49.449219 95.933594zm0 0"/><path d="m454.230469 173.839844v-57.257813c0-32.46875-26.410157-58.878906-58.882813-58.878906h-57.277344l-40.535156-40.535156c-22.910156-22.890625-60.160156-22.890625-83.09375 0l-40.53125 40.535156h-57.257812c-32.449219 0-58.882813 26.410156-58.882813 58.878906v57.257813l-40.53125 40.535156c-11.117187 11.113281-17.238281 25.875-17.238281 41.554688 0 15.679687 6.121094 30.445312 17.238281 41.535156l40.53125 40.535156v57.257812c0 32.46875 26.410157 58.878907 58.882813 58.878907h57.277344l40.535156 40.535156c11.457031 11.457031 26.496094 17.171875 41.535156 17.171875s30.078125-5.738281 41.535156-17.171875l40.535156-40.535156h57.277344c32.449219 0 58.882813-26.410157 58.882813-58.878907v-57.257812l40.53125-40.535156c11.117187-11.089844 17.238281-25.855469 17.238281-41.535156 0-15.679688-6.121094-30.441407-17.238281-41.535157zm17.917969 101.011718-45.226563 45.226563c-3.007813 3.011719-4.691406 7.085937-4.691406 11.308594v63.894531c0 14.824219-12.054688 26.878906-26.882813 26.878906h-63.890625c-4.246093 0-8.320312 1.683594-11.308593 4.691406l-45.226563 45.226563c-10.410156 10.414063-27.414063 10.414063-37.824219 0l-45.226562-45.226563c-3.007813-3.007812-7.058594-4.691406-11.304688-4.691406h-63.914062c-14.808594 0-26.882813-12.054687-26.882813-26.878906v-63.894531c0-4.246094-1.683593-8.320313-4.691406-11.308594l-45.226563-45.226563c-5.058593-5.074218-7.851562-11.796874-7.851562-18.921874s2.792969-13.84375 7.851562-18.921876l45.226563-45.226562c3.007813-3.007812 4.691406-7.082031 4.691406-11.304688v-63.894531c0-14.828125 12.054688-26.878906 26.882813-26.878906h63.890625c4.246093 0 8.320312-1.6875 11.308593-4.695313l45.226563-45.226562c10.410156-10.410156 27.414063-10.410156 37.824219 0l45.226562 45.226562c3.007813 3.007813 7.058594 4.695313 11.304688 4.695313h63.894531c14.804687 0 26.878906 12.050781 26.878906 26.878906v63.894531c0 4.242188 1.6875 8.316407 4.695313 11.304688l45.226562 45.226562c5.078125 5.078126 7.871094 11.796876 7.871094 18.921876s-2.792969 13.847656-7.851562 18.921874zm0 0"/></svg>