<!-- Generated by IcoMoon.io -->
<svg version="1.1" xmlns="http://www.w3.org/2000/svg" width="24" height="24" viewBox="0 0 24 24">
<title>download-cloud</title>
<path d="M11 12v6.586l-2.293-2.293c-0.391-0.391-1.024-0.391-1.414 0s-0.391 1.024 0 1.414l4 4c0.092 0.092 0.202 0.166 0.324 0.217 0.245 0.101 0.521 0.101 0.766 0 0.118-0.049 0.228-0.121 0.324-0.217l4-4c0.391-0.391 0.391-1.024 0-1.414s-1.024-0.391-1.414 0l-2.293 2.293v-6.586c0-0.552-0.448-1-1-1s-1 0.448-1 1zM21.455 18.908c1.355-0.953 2.196-2.367 2.46-3.878s-0.050-3.126-1.003-4.481c-0.825-1.174-1.998-1.963-3.287-2.324-0.526-0.147-1.072-0.223-1.621-0.225h-0.523c-0.722-2.058-2.137-3.71-3.907-4.758-1.981-1.172-4.412-1.589-6.819-0.972s-4.338 2.155-5.51 4.136-1.589 4.412-0.972 6.819c0.371 1.446 1.075 2.725 1.983 3.734 0.37 0.41 1.002 0.444 1.412 0.074s0.444-1.002 0.074-1.412c-0.692-0.769-1.242-1.76-1.533-2.893-0.481-1.873-0.157-3.761 0.756-5.304s2.412-2.736 4.285-3.216 3.761-0.157 5.304 0.756 2.736 2.412 3.216 4.285c0.116 0.435 0.506 0.751 0.97 0.751h1.256c0.37 0.001 0.737 0.052 1.090 0.151 0.861 0.241 1.639 0.765 2.19 1.548 0.636 0.904 0.845 1.978 0.669 2.988s-0.736 1.95-1.64 2.585c-0.452 0.318-0.56 0.941-0.243 1.393s0.941 0.56 1.393 0.243z"></path>
</svg>
