<!-- Generated by IcoMoon.io -->
<svg version="1.1" xmlns="http://www.w3.org/2000/svg" width="24" height="24" viewBox="0 0 24 24">
<title>github</title>
<path d="M8.713 18.042c-1.268 0.38-2.060 0.335-2.583 0.17-0.231-0.073-0.431-0.176-0.614-0.302-0.411-0.284-0.727-0.675-1.119-1.172-0.356-0.451-0.85-1.107-1.551-1.476-0.185-0.098-0.386-0.177-0.604-0.232-0.536-0.134-1.079 0.192-1.213 0.728s0.192 1.079 0.728 1.213c0.074 0.023 0.155 0.060 0.155 0.060 0.252 0.133 0.487 0.404 0.914 0.946 0.366 0.464 0.856 1.098 1.553 1.579 0.332 0.229 0.711 0.426 1.149 0.564 1.015 0.321 2.236 0.296 3.76-0.162 0.529-0.159 0.829-0.716 0.67-1.245s-0.716-0.829-1.245-0.67zM17 22v-3.792c0.052-0.684-0.056-1.343-0.292-1.942 0.777-0.171 1.563-0.427 2.297-0.823 2.083-1.124 3.496-3.242 3.496-6.923 0-1.503-0.516-2.887-1.379-3.981 0.355-1.345 0.226-2.726-0.293-3.933-0.122-0.283-0.359-0.482-0.634-0.564-0.357-0.106-1.732-0.309-4.373 1.362-2.273-0.541-4.557-0.509-6.646-0.002-2.639-1.669-4.013-1.466-4.37-1.36-0.296 0.088-0.521 0.3-0.635 0.565-0.554 1.292-0.624 2.672-0.292 3.932-0.93 1.178-1.387 2.601-1.379 4.017 0 3.622 1.389 5.723 3.441 6.859 0.752 0.416 1.56 0.685 2.357 0.867-0.185 0.468-0.286 0.961-0.304 1.456-0.005 0.141-0.003 0.283 0.005 0.424l0.001 3.838c0 0.552 0.448 1 1 1s1-0.448 1-1v-3.87c0-0.021-0.001-0.045-0.002-0.069-0.006-0.084-0.007-0.168-0.004-0.252 0.020-0.568 0.241-1.126 0.665-1.564 0.145-0.149 0.246-0.347 0.274-0.572 0.068-0.548-0.321-1.048-0.869-1.116-0.34-0.042-0.677-0.094-1.006-0.159-0.79-0.156-1.518-0.385-2.147-0.733-1.305-0.723-2.391-2.071-2.41-5.042 0.013-1.241 0.419-2.319 1.224-3.165 0.257-0.273 0.35-0.671 0.212-1.040-0.28-0.748-0.341-1.58-0.14-2.392 0.491 0.107 1.354 0.416 2.647 1.282 0.235 0.157 0.533 0.214 0.825 0.133 1.997-0.557 4.242-0.602 6.47 0.002 0.271 0.073 0.569 0.033 0.818-0.135 1.293-0.866 2.156-1.175 2.647-1.282 0.189 0.766 0.157 1.595-0.141 2.392-0.129 0.352-0.058 0.755 0.213 1.040 0.758 0.795 1.224 1.872 1.224 3.060 0 3.075-1.114 4.445-2.445 5.163-0.623 0.336-1.343 0.555-2.123 0.7-0.322 0.060-0.651 0.106-0.983 0.143-0.21 0.023-0.418 0.114-0.584 0.275-0.397 0.384-0.408 1.017-0.024 1.414 0.067 0.070 0.13 0.143 0.188 0.22 0.34 0.449 0.521 1.015 0.474 1.617 0 0.024-0.001 0.051-0.003 0.078v3.872c0 0.552 0.448 1 1 1s1-0.448 1-1z"></path>
</svg>
